HIERARCHY
ROOT Hip
{
	OFFSET	0.00  0.00  0.00 
	CHANNELS 6 Xposition Yposition Zposition Xrotation Zrotation Yrotation
	JOINT Abdomen
	{
		OFFSET	0.039181 5.637571 0.560720
		CHANNELS 3 Xrotation Zrotation Yrotation
		JOINT Chest
		{
			OFFSET	-0.136063 7.190207 -0.124363
			CHANNELS 3 Xrotation Zrotation Yrotation
			JOINT Neck
			{
				OFFSET	0.193764 10.560151 -1.259468
				CHANNELS 3 Xrotation Zrotation Yrotation
				JOINT Head
				{
					OFFSET	-0.096882 0.362727 0.622109
					CHANNELS 3 Xrotation Zrotation Yrotation
					JOINT LeftEye
					{
						OFFSET	1.356350 5.062673 4.221998
						CHANNELS 3 Zrotation Yrotation Xrotation
						End Site
						{
							OFFSET 0.000000 0.000000 0.871939
						}
					}
					JOINT RightEye
					{
						OFFSET	-1.356350 5.062673 4.221998
						CHANNELS 3 Zrotation Yrotation Xrotation
						End Site
						{
							OFFSET 0.000000 0.000000 0.871939
						}
					}
				}
			}
			JOINT RightCollar
			{
				OFFSET	-3.778404 4.940989 0.193764
				CHANNELS 3 Yrotation Zrotation Xrotation
				JOINT RightShoulder
				{
					OFFSET	-2.615818 1.356350 -0.484411
					CHANNELS 3 Zrotation Yrotation Xrotation
					JOINT RightForearm
					{
						OFFSET	-11.432094 0.484410 -1.937643
						CHANNELS 3 Yrotation Zrotation Xrotation
						JOINT RightHand
						{
							OFFSET	-10.657035 -0.096881 0.581293
							CHANNELS 3 Zrotation Yrotation Xrotation
							JOINT RightThumb1
							{
								OFFSET	-0.678175 -0.581297 0.968821
								CHANNELS 3 Zrotation Yrotation Xrotation
								JOINT RightThumb2
								{
									OFFSET	-0.968823 -0.484410 0.484411
									CHANNELS 3 Zrotation Yrotation Xrotation
									JOINT RightThumb3
									{
										OFFSET	-0.929680 -0.497680 0.055639
										CHANNELS 3 Zrotation Yrotation Xrotation
										End Site
										{
											OFFSET -1.097190 -0.513867 -0.001182
										}
									}
								}
							}
							JOINT RightIndex1
							{
								OFFSET	-3.003348 0.581291 1.259468
								CHANNELS 3 Zrotation Yrotation Xrotation
								JOINT RightIndex2
								{
									OFFSET	-1.468153 -0.266718 0.069755
									CHANNELS 3 Zrotation Yrotation Xrotation
									JOINT RightIndex3
									{
										OFFSET	-0.944212 -0.382684 -0.083028
										CHANNELS 3 Zrotation Yrotation Xrotation
										End Site
										{
											OFFSET -0.675657 -0.558718 0.000000
										}
									}
								}
							}
							JOINT RightMid1
							{
								OFFSET	-3.197113 0.581291 0.290646
								CHANNELS 3 Zrotation Yrotation Xrotation
								JOINT RightMid2
								{
									OFFSET	-1.550115 -0.387529 0.000000
									CHANNELS 3 Zrotation Yrotation Xrotation
									JOINT RightMid3
									{
										OFFSET	-0.731071 -0.803926 0.018214
										CHANNELS 3 Zrotation Yrotation Xrotation
										End Site
										{
											OFFSET -0.366992 -0.937043 0.083406
										}
									}
								}
							}
							JOINT RightRing1
							{
								OFFSET	-3.197113 0.387529 -0.678175
								CHANNELS 3 Zrotation Yrotation Xrotation
								JOINT RightRing2
								{
									OFFSET	-1.259466 -0.484410 0.096882
									CHANNELS 3 Zrotation Yrotation Xrotation
									JOINT RightRing3
									{
										OFFSET	-0.551552 -0.801218 0.111221
										CHANNELS 3 Zrotation Yrotation Xrotation
										End Site
										{
											OFFSET -0.245208 -0.810324 0.000000
										}
									}
								}
							}
							JOINT RightPinky1
							{
								OFFSET	-2.809584 -0.096881 -1.453232
								CHANNELS 3 Zrotation Yrotation Xrotation
								JOINT RightPinky2
								{
									OFFSET	-0.984323 -0.316034 0.039140
									CHANNELS 3 Zrotation Yrotation Xrotation
									JOINT RightPinky3
									{
										OFFSET	-0.468908 -0.555906 0.057742
										CHANNELS 3 Zrotation Yrotation Xrotation
										End Site
										{
											OFFSET -0.479664 -0.640198 0.044081
										}
									}
								}
							}
						}
					}
				}
			}
			JOINT LeftCollar
			{
				OFFSET	3.972168 4.940989 0.193764
				CHANNELS 3 Yrotation Zrotation Xrotation
				JOINT LeftShoulder
				{
					OFFSET	2.615818 1.356350 -0.484411
					CHANNELS 3 Zrotation Yrotation Xrotation
					JOINT LeftForearm
					{
						OFFSET	11.432094 0.484410 -1.937643
						CHANNELS 3 Yrotation Zrotation Xrotation
						JOINT LeftHand
						{
							OFFSET	10.657035 -0.096881 0.581293
							CHANNELS 3 Zrotation Yrotation Xrotation
							JOINT LeftThumb1
							{
								OFFSET	0.678175 -0.581297 0.968821
								CHANNELS 3 Zrotation Yrotation Xrotation
								JOINT LeftThumb2
								{
									OFFSET	0.968823 -0.484410 0.484411
									CHANNELS 3 Zrotation Yrotation Xrotation
									JOINT LeftThumb3
									{
										OFFSET	0.929680 -0.497680 0.055639
										CHANNELS 3 Zrotation Yrotation Xrotation
										End Site
										{
											OFFSET 1.097190 -0.513867 -0.001182
										}
									}
								}
							}
							JOINT LeftIndex1
							{
								OFFSET	3.003348 0.581291 1.259468
								CHANNELS 3 Zrotation Yrotation Xrotation
								JOINT LeftIndex2
								{
									OFFSET	1.468153 -0.266718 0.069755
									CHANNELS 3 Zrotation Yrotation Xrotation
									JOINT LeftIndex3
									{
										OFFSET	0.944212 -0.382684 -0.083028
										CHANNELS 3 Zrotation Yrotation Xrotation
										End Site
										{
											OFFSET 0.675657 -0.558718 0.000000
										}
									}
								}
							}
							JOINT LeftMid1
							{
								OFFSET	3.197113 0.581291 0.290646
								CHANNELS 3 Zrotation Yrotation Xrotation
								JOINT LeftMid2
								{
									OFFSET	1.550115 -0.387529 0.000000
									CHANNELS 3 Zrotation Yrotation Xrotation
									JOINT LeftMid3
									{
										OFFSET	0.731071 -0.803926 0.018214
										CHANNELS 3 Zrotation Yrotation Xrotation
										End Site
										{
											OFFSET 0.366992 -0.937043 0.083406
										}
									}
								}
							}
							JOINT LeftRing1
							{
								OFFSET	3.197113 0.387529 -0.678175
								CHANNELS 3 Zrotation Yrotation Xrotation
								JOINT LeftRing2
								{
									OFFSET	1.259466 -0.484410 0.096882
									CHANNELS 3 Zrotation Yrotation Xrotation
									JOINT LeftRing3
									{
										OFFSET	0.551552 -0.801218 0.111221
										CHANNELS 3 Zrotation Yrotation Xrotation
										End Site
										{
											OFFSET 0.245208 -0.810324 0.000000
										}
									}
								}
							}
							JOINT LeftPinky1
							{
								OFFSET	2.809584 -0.096881 -1.453232
								CHANNELS 3 Zrotation Yrotation Xrotation
								JOINT LeftPinky2
								{
									OFFSET	0.984323 -0.316034 0.039140
									CHANNELS 3 Zrotation Yrotation Xrotation
									JOINT LeftPinky3
									{
										OFFSET	0.468908 -0.555906 0.057742
										CHANNELS 3 Zrotation Yrotation Xrotation
										End Site
										{
											OFFSET 0.479664 -0.640198 0.044081
										}
									}
								}
							}
						}
					}
				}
			}
		}
	}
	JOINT RightThigh
	{
		OFFSET	-3.875286 0.717509 0.339475
		CHANNELS 3 Xrotation Zrotation Yrotation
		JOINT RightShin
		{
			OFFSET	-0.434323 -20.673391 0.003424
			CHANNELS 3 Xrotation Zrotation Yrotation
			JOINT RightFoot
			{
				OFFSET	-0.063555 -15.653578 -0.075717
				CHANNELS 3 Xrotation Yrotation Zrotation
				JOINT RightToe
				{
					OFFSET	-0.513669 -2.790361 5.061637
					CHANNELS 3 Xrotation Yrotation Zrotation
					End Site
					{
						OFFSET 0.000000 -0.280183 2.993164
					}
				}
			}
		}
	}
	JOINT LeftThigh
	{
		OFFSET	3.875286 0.717509 0.339475
		CHANNELS 3 Xrotation Zrotation Yrotation
		JOINT LeftShin
		{
			OFFSET	0.434323 -20.673391 0.003424
			CHANNELS 3 Xrotation Zrotation Yrotation
			JOINT LeftFoot
			{
				OFFSET	0.063555 -15.653578 -0.075717
				CHANNELS 3 Xrotation Yrotation Zrotation
				JOINT LeftToe
				{
					OFFSET	0.513669 -2.874842 4.946725
					CHANNELS 3 Xrotation Yrotation Zrotation
					End Site
					{
						OFFSET 0.000000 -0.195702 3.108076
					}
				}
			}
		}
	}
}
MOTION
Frames:     5
Frame Time: 0.033333
0.000000 40.739033 0.000000 3.260410 -6.758830 -35.062199 -3.195770 8.073530 -8.354980 14.210200 8.182880 1.716640 0.000000 0.000000 0.000000 -24.854300 -15.389600 12.439000 0.000000 0.000000 0.000000 0.000000 0.000000 0.000000 -5.673790 -21.702700 -0.144202 76.886757 7.744226 3.228472 65.211838 -0.143670 -0.562663 -13.488967 -9.633165 -2.922273 -2.196803 8.088476 9.363434 -15.836849 8.200828 -17.027071 -4.667157 11.532217 -17.436045 0.000000 0.000000 0.000000 9.192525 9.822696 -5.878980 -14.800317 3.416048 -6.315852 -0.175781 0.000000 0.000000 8.244953 -1.502700 0.722675 -12.838020 -2.429856 5.230082 -0.175781 0.000000 0.000000 -0.156757 -5.465929 4.370303 -17.719269 -3.972915 -0.926374 -0.175781 0.000000 0.000000 7.752715 -4.393883 3.036627 4.441531 -3.901016 1.855662 4.892310 14.027800 -1.019360 -87.537041 -19.738012 29.937504 -59.410980 -0.389373 -0.770017 13.535496 8.606116 5.442409 1.301079 -8.886789 9.164861 -30.905001 -8.414250 -17.094839 27.988997 -12.283599 -17.862673 0.000000 0.000000 0.000000 -21.136637 -10.005515 -5.939188 26.936884 -3.570157 -6.428788 -0.175781 0.000000 0.000000 -0.351563 0.000000 0.000000 3.108605 2.209314 1.967557 -0.175781 0.000000 0.000000 -0.736324 5.381598 4.224761 16.871576 3.912536 -1.093365 -0.175781 0.000000 0.000000 -8.641175 4.276957 2.914167 -5.330077 3.798435 1.717381 -15.841676 4.414591 -23.156490 10.190234 0.207457 -0.726796 11.358283 -16.579567 1.402655 -0.000457 0.016384 -0.175016 14.003160 14.023910 12.905597 35.855347 -0.433819 0.362985 33.587872 22.271366 -6.879602 0.000000 0.000000 0.000000 
-1.801940 41.187546 1.635845 1.772500 -7.379350 -36.283401 -1.773210 7.555020 -6.031970 14.065000 9.041830 2.281940 0.000000 0.000000 0.000000 -26.238300 -14.740500 9.597290 0.000000 0.000000 0.000000 0.000000 0.000000 0.000000 -5.276330 -21.178101 0.030918 74.836655 11.253035 4.337005 63.805641 -0.152778 -0.543266 -13.594112 -10.094247 -1.615669 -2.196803 8.088476 9.363434 -15.836849 8.200828 -17.027071 -4.667157 11.532217 -17.436045 0.000000 0.000000 0.000000 9.192525 9.822696 -5.878980 -14.800317 3.416048 -6.315852 -0.175781 0.000000 0.000000 8.244953 -1.502700 0.722675 -12.838020 -2.429856 5.230082 -0.175781 0.000000 0.000000 -0.156757 -5.465929 4.370303 -17.719269 -3.972915 -0.926374 -0.175781 0.000000 0.000000 7.752715 -4.393883 3.036627 4.441531 -3.901016 1.855662 4.529990 14.033800 -0.934132 -87.827583 -14.440318 27.847754 -56.774364 -0.370459 -0.720528 14.065603 11.517496 5.503036 1.301079 -8.886789 9.164861 -30.905001 -8.414250 -17.094839 27.988997 -12.283599 -17.862673 0.000000 0.000000 0.000000 -21.136637 -10.005515 -5.939188 26.936884 -3.570157 -6.428788 -0.175781 0.000000 0.000000 -0.351563 0.000000 0.000000 3.108605 2.209314 1.967557 -0.175781 0.000000 0.000000 -0.736324 5.381598 4.224761 16.871576 3.912536 -1.093365 -0.175781 0.000000 0.000000 -8.641175 4.276957 2.914167 -5.330077 3.798435 1.717381 -12.638402 4.571812 -23.991913 12.128807 0.000613 -0.049341 9.221630 -14.770337 1.165895 -0.000457 0.016384 -0.175016 4.910102 13.513865 9.632160 46.052765 -0.308375 0.243259 38.602539 23.850374 -10.102752 0.000000 0.000000 0.000000 
-3.620292 41.550312 3.273376 0.886609 -7.557730 -37.580002 -0.354094 6.855340 -3.909150 13.922400 9.901840 2.816530 0.000000 0.000000 0.000000 -27.997700 -14.204400 7.069370 0.000000 0.000000 0.000000 0.000000 0.000000 0.000000 -4.694270 -20.651400 0.324179 72.256020 14.943975 5.082770 62.223885 0.002445 -0.609966 -13.594447 -10.390376 -0.174458 -2.196803 8.088476 9.363434 -15.836849 8.200828 -17.027071 -4.667157 11.532217 -17.436045 0.000000 0.000000 0.000000 9.192525 9.822696 -5.878980 -14.800317 3.416048 -6.315852 -0.175781 0.000000 0.000000 8.244953 -1.502700 0.722675 -12.838020 -2.429856 5.230082 -0.175781 0.000000 0.000000 -0.156757 -5.465929 4.370303 -17.719269 -3.972915 -0.926374 -0.175781 0.000000 0.000000 7.752715 -4.393883 3.036627 4.441531 -3.901016 1.855662 4.171030 14.226900 -0.686075 -88.390381 -9.509807 25.523228 -53.786686 -0.183165 -0.594228 14.460701 14.279529 5.015483 1.301079 -8.886789 9.164861 -30.905001 -8.414250 -17.094839 27.988997 -12.283599 -17.862673 0.000000 0.000000 0.000000 -21.136637 -10.005515 -5.939188 26.936884 -3.570157 -6.428788 -0.175781 0.000000 0.000000 -0.351563 0.000000 0.000000 3.108605 2.209314 1.967557 -0.175781 0.000000 0.000000 -0.736324 5.381598 4.224761 16.871576 3.912536 -1.093365 -0.175781 0.000000 0.000000 -8.641175 4.276957 2.914167 -5.330077 3.798435 1.717381 -8.680829 4.736359 -24.458441 11.776225 0.155954 -0.032633 6.879364 -12.830068 1.401790 -0.000457 0.016384 -0.175016 -3.668970 12.536943 6.396001 55.894558 -0.573878 0.295404 43.272118 24.194218 -13.212276 0.000000 0.000000 0.000000 
-5.405830 41.820740 4.907527 0.000000 -7.382810 -39.023602 0.883997 6.151640 -1.820560 13.774400 10.592200 3.479720 0.000000 0.000000 0.000000 -29.434900 -14.018300 5.830400 0.000000 0.000000 0.000000 0.000000 0.000000 0.000000 -4.303850 -20.123400 0.484523 69.700623 18.281040 6.212772 60.991684 -0.179787 -0.671858 -13.659741 -10.886364 0.581508 -2.196803 8.088476 9.363434 -15.836849 8.200828 -17.027071 -4.667157 11.532217 -17.436045 0.000000 0.000000 0.000000 9.192525 9.822696 -5.878980 -14.800317 3.416048 -6.315852 -0.175781 0.000000 0.000000 8.244953 -1.502700 0.722675 -12.838020 -2.429856 5.230082 -0.175781 0.000000 0.000000 -0.156757 -5.465929 4.370303 -17.719269 -3.972915 -0.926374 -0.175781 0.000000 0.000000 7.752715 -4.393883 3.036627 4.441531 -3.901016 1.855662 3.989820 14.240700 -0.467505 -88.669250 -4.266109 23.229134 -51.324478 -0.038811 -0.675229 14.637335 16.808216 5.022960 1.301079 -8.886789 9.164861 -30.905001 -8.414250 -17.094839 27.988997 -12.283599 -17.862673 0.000000 0.000000 0.000000 -21.136637 -10.005515 -5.939188 26.936884 -3.570157 -6.428788 -0.175781 0.000000 0.000000 -0.351563 0.000000 0.000000 3.108605 2.209314 1.967557 -0.175781 0.000000 0.000000 -0.736324 5.381598 4.224761 16.871576 3.912536 -1.093365 -0.175781 0.000000 0.000000 -8.641175 4.276957 2.914167 -5.330077 3.798435 1.717381 -4.716538 5.083740 -24.561090 11.060529 0.504278 -0.525577 4.467468 -10.927602 0.488708 -0.000457 0.016384 -0.175016 -10.478775 11.336381 5.428071 60.816593 -0.594542 0.277159 43.773605 24.597244 -15.771187 0.000000 0.000000 0.000000 
-7.109319 42.091167 6.533151 -0.708452 -7.030720 -41.222698 1.588750 5.271440 0.688875 13.417100 10.607800 4.293990 0.000000 0.000000 0.000000 -29.413500 -13.865200 5.746770 0.000000 0.000000 0.000000 0.000000 0.000000 0.000000 -4.299040 -19.948099 0.496672 68.104721 21.437901 8.191400 60.110638 -0.362943 -0.741141 -13.129608 -10.975618 1.243886 -2.196803 8.088476 9.363434 -15.836849 8.200828 -17.027071 -4.667157 11.532217 -17.436045 0.000000 0.000000 0.000000 9.192525 9.822696 -5.878980 -14.800317 3.416048 -6.315852 -0.175781 0.000000 0.000000 8.244953 -1.502700 0.722675 -12.838020 -2.429856 5.230082 -0.175781 0.000000 0.000000 -0.156757 -5.465929 4.370303 -17.719269 -3.972915 -0.926374 -0.175781 0.000000 0.000000 7.752715 -4.393883 3.036627 4.441531 -3.901016 1.855662 3.996190 14.603300 -0.316139 -88.464531 1.334115 20.968353 -49.919788 -0.035558 -0.487008 13.966362 18.939404 4.481069 1.301079 -8.886789 9.164861 -30.905001 -8.414250 -17.094839 27.988997 -12.283599 -17.862673 0.000000 0.000000 0.000000 -21.136637 -10.005515 -5.939188 26.936884 -3.570157 -6.428788 -0.175781 0.000000 0.000000 -0.351563 0.000000 0.000000 3.108605 2.209314 1.967557 -0.175781 0.000000 0.000000 -0.736324 5.381598 4.224761 16.871576 3.912536 -1.093365 -0.175781 0.000000 0.000000 -8.641175 4.276957 2.914167 -5.330077 3.798435 1.717381 -0.979365 4.803365 -25.173191 10.369130 0.155437 -0.204532 3.384330 -8.127017 0.537095 -0.000457 0.016384 -0.175016 -14.714543 10.673833 8.512863 59.060352 -0.412341 0.206908 38.418663 24.918180 -15.299930 0.000000 0.000000 0.000000 
